<?xml version="1.0" encoding="UTF-8"?>
<svg version="1.1" xmlns="http://www.w3.org/2000/svg" width="360" height="360">
<path d="M0 0 C3.96 0 7.92 0 12 0 C12 3.3 12 6.6 12 10 C15.3 10 18.6 10 22 10 C22 16.27 22 22.54 22 29 C24.97 29 27.94 29 31 29 C31 38.57 31 48.14 31 58 C34.3 58 37.6 58 41 58 C41 61.3 41 64.6 41 68 C44.3 68 47.6 68 51 68 C51 71.3 51 74.6 51 78 C77.07 78 103.14 78 130 78 C130 87.9 130 97.8 130 108 C126.7 108 123.4 108 120 108 C120 111.3 120 114.6 120 118 C116.7 118 113.4 118 110 118 C110 121.3 110 124.6 110 128 C106.7 128 103.4 128 100 128 C100 130.97 100 133.94 100 137 C97.03 137 94.06 137 91 137 C91 140.3 91 143.6 91 147 C87.7 147 84.4 147 81 147 C81 150.3 81 153.6 81 157 C77.7 157 74.4 157 71 157 C71 169.21 71 181.42 71 194 C73.97 194 76.94 194 80 194 C81 195 81 195 81.11352539 196.85766602 C81.10828857 197.64842529 81.10305176 198.43918457 81.09765625 199.25390625 C81.09443359 200.10791016 81.09121094 200.96191406 81.08789062 201.84179688 C81.07951172 202.73962891 81.07113281 203.63746094 81.0625 204.5625 C81.05798828 205.46419922 81.05347656 206.36589844 81.04882812 207.29492188 C81.03700244 209.52997589 81.01906638 211.76499602 81 214 C84.3 214 87.6 214 91 214 C91 223.9 91 233.8 91 244 C83.74 244 76.48 244 69 244 C69 241.03 69 238.06 69 235 C62.73 235 56.46 235 50 235 C50 231.7 50 228.4 50 225 C43.4 225 36.8 225 30 225 C30 221.7 30 218.4 30 215 C23.4 215 16.8 215 10 215 C9.505 210.545 9.505 210.545 9 206 C6.69 205.67 4.38 205.34 2 205 C2 208.3 2 211.6 2 215 C-4.6 215 -11.2 215 -18 215 C-18 218.3 -18 221.6 -18 225 C-21.3 225 -24.6 225 -28 225 C-28 228.3 -28 231.6 -28 235 C-34.27 235 -40.54 235 -47 235 C-47 237.64 -47 240.28 -47 243 C-48 244 -48 244 -50.06640625 244.09765625 C-51.30197266 244.08025391 -51.30197266 244.08025391 -52.5625 244.0625 C-53.38878906 244.05347656 -54.21507812 244.04445313 -55.06640625 244.03515625 C-55.70449219 244.02355469 -56.34257813 244.01195312 -57 244 C-56.98839844 244.63808594 -56.97679687 245.27617187 -56.96484375 245.93359375 C-56.95582031 246.75988281 -56.94679687 247.58617187 -56.9375 248.4375 C-56.92589844 249.26121094 -56.91429687 250.08492187 -56.90234375 250.93359375 C-57 253 -57 253 -58 254 C-59.85287502 254.07226502 -61.70833878 254.0838122 -63.5625 254.0625 C-64.57441406 254.05347656 -65.58632812 254.04445313 -66.62890625 254.03515625 C-67.80259766 254.01775391 -67.80259766 254.01775391 -69 254 C-69.02312821 246.32463373 -69.04091753 238.64927104 -69.05181217 230.97387791 C-69.05703995 227.41022578 -69.06413569 223.84659743 -69.07543945 220.28295898 C-69.08834176 216.18993903 -69.09322906 212.0969442 -69.09765625 208.00390625 C-69.10281754 206.71851456 -69.10797882 205.43312286 -69.11329651 204.10877991 C-69.11337204 202.92763107 -69.11344757 201.74648224 -69.11352539 200.52954102 C-69.115746 199.48363297 -69.11796661 198.43772491 -69.12025452 197.36012268 C-69 195 -69 195 -68 194 C-65.03 194 -62.06 194 -59 194 C-59 178.49 -59 162.98 -59 147 C-65.27 147 -71.54 147 -78 147 C-79 146 -79 146 -79.09765625 143.93359375 C-79.06510417 141.62239583 -79.03255208 139.31119792 -79 137 C-82.3 137 -85.6 137 -89 137 C-88.67 134.03 -88.34 131.06 -88 128 C-91.3 128 -94.6 128 -98 128 C-98 124.7 -98 121.4 -98 118 C-101.3 118 -104.6 118 -108 118 C-108 114.7 -108 111.4 -108 108 C-111.3 108 -114.6 108 -118 108 C-118 98.1 -118 88.2 -118 78 C-91.93 78 -65.86 78 -39 78 C-39 74.7 -39 71.4 -39 68 C-35.7 68 -32.4 68 -29 68 C-29 64.7 -29 61.4 -29 58 C-25.7 58 -22.4 58 -19 58 C-19 51.73 -19 45.46 -19 39 C-16.03 39 -13.06 39 -10 39 C-10.01160156 37.64003906 -10.02320313 36.28007813 -10.03515625 34.87890625 C-10.04453262 33.1067722 -10.05363298 31.33463667 -10.0625 29.5625 C-10.07087891 28.66466797 -10.07925781 27.76683594 -10.08789062 26.84179688 C-10.09111328 25.98779297 -10.09433594 25.13378906 -10.09765625 24.25390625 C-10.10289307 23.46314697 -10.10812988 22.6723877 -10.11352539 21.85766602 C-10 20 -10 20 -9 19 C-6.03 19 -3.06 19 0 19 C0 12.73 0 6.46 0 0 Z " fill="#FEAD00" transform="translate(174,53)"/>
<path d="M0 0 C9.9 0 19.8 0 30 0 C30 3.3 30 6.6 30 10 C36.6 10 43.2 10 50 10 C50 13.3 50 16.6 50 20 C56.27 20 62.54 20 69 20 C69 23.3 69 26.6 69 30 C72.3 30 75.6 30 79 30 C79 32.97 79 35.94 79 39 C85.93 39 92.86 39 100 39 C100 45.6 100 52.2 100 59 C92.74 59 85.48 59 78 59 C78 56.03 78 53.06 78 50 C71.73 50 65.46 50 59 50 C59 46.7 59 43.4 59 40 C52.4 40 45.8 40 39 40 C39 36.7 39 33.4 39 30 C32.4 30 25.8 30 19 30 C18.505 25.545 18.505 25.545 18 21 C15.69 20.67 13.38 20.34 11 20 C11 23.3 11 26.6 11 30 C4.4 30 -2.2 30 -9 30 C-9 33.3 -9 36.6 -9 40 C-12.3 40 -15.6 40 -19 40 C-19 43.3 -19 46.6 -19 50 C-25.27 50 -31.54 50 -38 50 C-38 52.64 -38 55.28 -38 58 C-39 59 -39 59 -41.06640625 59.09765625 C-41.89011719 59.08605469 -42.71382812 59.07445312 -43.5625 59.0625 C-44.38878906 59.05347656 -45.21507813 59.04445313 -46.06640625 59.03515625 C-46.70449219 59.02355469 -47.34257813 59.01195312 -48 59 C-47.98839844 59.63808594 -47.97679688 60.27617187 -47.96484375 60.93359375 C-47.95582031 61.75988281 -47.94679688 62.58617187 -47.9375 63.4375 C-47.92589844 64.26121094 -47.91429688 65.08492188 -47.90234375 65.93359375 C-48 68 -48 68 -49 69 C-52.63 69 -56.26 69 -60 69 C-60 59.1 -60 49.2 -60 39 C-56.37 39 -52.74 39 -49 39 C-49 36.03 -49 33.06 -49 30 C-42.73 29.67 -36.46 29.34 -30 29 C-29.67 26.03 -29.34 23.06 -29 20 C-26.03 20 -23.06 20 -20 20 C-20 16.7 -20 13.4 -20 10 C-13.4 10 -6.8 10 0 10 C0 6.7 0 3.4 0 0 Z " fill="#F76800" transform="translate(165,238)"/>
<path d="M0 0 C3.63 0 7.26 0 11 0 C10.67 3.3 10.34 6.6 10 10 C13.3 10 16.6 10 20 10 C20 13.3 20 16.6 20 20 C23.3 20 26.6 20 30 20 C30 23.3 30 26.6 30 30 C33.3 30 36.6 30 40 30 C40 32.97 40 35.94 40 39 C43.3 39 46.6 39 50 39 C50 42.3 50 45.6 50 49 C53.3 49 56.6 49 60 49 C60 52.3 60 55.6 60 59 C63.3 59 66.6 59 70 59 C70 68.57 70 78.14 70 88 C66.37 88 62.74 88 59 88 C59 81.73 59 75.46 59 69 C52.79207086 69.03958027 52.79207086 69.03958027 46.58422852 69.09008789 C45.81522217 69.09258545 45.04621582 69.09508301 44.25390625 69.09765625 C43.46314697 69.10289307 42.6723877 69.10812988 41.85766602 69.11352539 C40 69 40 69 39 68 C38.85806663 64.99668982 38.95763622 62.00782866 39 59 C35.7 59 32.4 59 29 59 C29.33 56.03 29.66 53.06 30 50 C26.7 50 23.4 50 20 50 C20 46.7 20 43.4 20 40 C16.7 40 13.4 40 10 40 C10 36.7 10 33.4 10 30 C6.7 30 3.4 30 0 30 C0 20.1 0 10.2 0 0 Z " fill="#F76800" transform="translate(56,131)"/>
<path d="M0 0 C3.3 0 6.6 0 10 0 C10 3.3 10 6.6 10 10 C16.6 10 23.2 10 30 10 C30 13.3 30 16.6 30 20 C36.27 20 42.54 20 49 20 C49 23.3 49 26.6 49 30 C52.3 30 55.6 30 59 30 C59 32.97 59 35.94 59 39 C65.93 39 72.86 39 80 39 C80 45.6 80 52.2 80 59 C72.74 59 65.48 59 58 59 C58 56.03 58 53.06 58 50 C51.73 50 45.46 50 39 50 C39 46.7 39 43.4 39 40 C32.4 40 25.8 40 19 40 C19 36.7 19 33.4 19 30 C12.4 30 5.8 30 -1 30 C-0.67 20.1 -0.34 10.2 0 0 Z " fill="#FD3B00" transform="translate(185,238)"/>
<path d="M0 0 C6.6 0 13.2 0 20 0 C20 6.6 20 13.2 20 20 C16.7 20 13.4 20 10 20 C10 23.3 10 26.6 10 30 C6.7 30 3.4 30 0 30 C0 33.3 0 36.6 0 40 C-3.3 40 -6.6 40 -10 40 C-10 42.97 -10 45.94 -10 49 C-12.97 49 -15.94 49 -19 49 C-19 52.3 -19 55.6 -19 59 C-22.3 59 -25.6 59 -29 59 C-29 62.3 -29 65.6 -29 69 C-32.63 69 -36.26 69 -40 69 C-40 59.1 -40 49.2 -40 39 C-36.7 39 -33.4 39 -30 39 C-30 35.7 -30 32.4 -30 29 C-26.7 29 -23.4 29 -20 29 C-20 26.03 -20 23.06 -20 20 C-16.7 20 -13.4 20 -10 20 C-10 16.7 -10 13.4 -10 10 C-6.7 10 -3.4 10 0 10 C0 6.7 0 3.4 0 0 Z " fill="#FD4800" transform="translate(284,141)"/>
<path d="M0 0 C6.6 0 13.2 0 20 0 C20 0.33 20 0.66 20 1 C16.37 1 12.74 1 9 1 C9 3.97 9 6.94 9 10 C6.03 10 3.06 10 0 10 C0 6.7 0 3.4 0 0 Z " fill="#FD5B00" transform="translate(284,141)"/>
<path d="M0 0 C3.3 0 6.6 0 10 0 C10 3.3 10 6.6 10 10 C6.7 10 3.4 10 0 10 C0 6.7 0 3.4 0 0 Z " fill="#FC8F00" transform="translate(175,228)"/>
<path d="M0 0 C3.3 0 6.6 0 10 0 C10 3.3 10 6.6 10 10 C6.7 10 3.4 10 0 10 C0 6.7 0 3.4 0 0 Z " fill="#FC6200" transform="translate(274,151)"/>
<path d="M0 0 C3.3 0 6.6 0 10 0 C10 2.97 10 5.94 10 9 C6.7 9 3.4 9 0 9 C0 6.03 0 3.06 0 0 Z " fill="#F8790C" transform="translate(106,297)"/>
<path d="M0 0 C3.3 0 6.6 0 10 0 C10 2.97 10 5.94 10 9 C6.7 9 3.4 9 0 9 C0 6.03 0 3.06 0 0 Z " fill="#FE5600" transform="translate(224,258)"/>
</svg>
